<svg width="264" height="84" viewBox="0 0 264 84" fill="none" xmlns="http://www.w3.org/2000/svg">
<path d="M16 30.5245V49.7434C16.3621 54.0949 19.3316 63.523 31.2094 64.9735C37.0034 65.3361 47.143 62.0725 48.5915 49.7434C49.2778 43.902 46.0566 32.0126 31.2094 32.0126V39.394C33.7443 38.8648 41.349 39.8602 41.349 48.2929C41.349 52.2818 38.0898 57.7211 31.2094 56.6332C28.7952 56.2706 23.9668 54.0949 23.9668 48.2929V34.5134V30.5245H16Z" fill="#1E1A2E"/>
<path d="M23.9668 26.7029H16V18.0667C21.5421 17.4659 23.6204 21.0706 23.9668 22.948V26.7029Z" fill="#1E1A2E"/>
<path d="M75.808 58.9913C72.2283 58.9913 69.2414 57.836 66.8474 55.5254C64.4758 53.1925 63.29 50.2932 63.29 46.8272C63.29 43.3613 64.4758 40.473 66.8474 38.1624C69.2414 35.8295 72.2283 34.6631 75.808 34.6631C78.1573 34.6631 80.2827 35.1963 82.1845 36.2628C84.1086 37.307 85.6076 38.7622 86.6816 40.6285C87.7555 42.4726 88.2925 44.5388 88.2925 46.8272C88.2925 50.3154 87.1067 53.2148 84.7351 55.5254C82.3635 57.836 79.3878 58.9913 75.808 58.9913ZM75.808 54.2257C77.1952 54.2257 78.4481 53.9146 79.5668 53.2925C80.6855 52.6482 81.558 51.7595 82.1845 50.6264C82.8333 49.4933 83.1577 48.2269 83.1577 46.8272C83.1577 44.7165 82.453 42.9614 81.0434 41.5617C79.6563 40.1397 77.9112 39.4288 75.808 39.4288C73.7273 39.4288 71.971 40.1397 70.5391 41.5617C69.1295 42.9614 68.4248 44.7165 68.4248 46.8272C68.4248 48.9379 69.1295 50.7042 70.5391 52.1261C71.971 53.5258 73.7273 54.2257 75.808 54.2257Z" fill="#1E1A2E"/>
<path d="M101.695 39.9953C104.425 39.9953 106.684 40.8951 108.474 42.6948C110.287 44.4944 111.193 46.7606 111.193 49.4933C111.193 52.2261 110.287 54.5034 108.474 56.3252C106.662 58.1248 104.402 59.0247 101.695 59.0247C99.8381 59.0247 98.1713 58.5248 96.6946 57.525V64.9901H91.7948V40.4952H95.0502L95.8892 42.1282C97.5001 40.7063 99.4354 39.9953 101.695 39.9953ZM97.735 53.0259C98.6747 53.9591 99.8493 54.4256 101.259 54.4256C102.691 54.4256 103.877 53.9591 104.816 53.0259C105.756 52.0928 106.226 50.9152 106.226 49.4933C106.226 48.5602 106.013 47.7159 105.588 46.9605C105.163 46.2051 104.57 45.6164 103.809 45.1942C103.071 44.7721 102.232 44.561 101.292 44.561C100.353 44.561 99.5025 44.7721 98.7418 45.1942C97.9811 45.6164 97.3882 46.2051 96.9631 46.9605C96.5604 47.7159 96.359 48.5602 96.359 49.4933C96.359 50.9152 96.8177 52.0928 97.735 53.0259Z" fill="#1E1A2E"/>
<path d="M132.256 49.4267C132.256 49.8932 132.223 50.3709 132.156 50.8597H118.463C118.665 52.0817 119.146 53.0259 119.906 53.6924C120.689 54.3367 121.685 54.6589 122.893 54.6589C123.721 54.6589 124.47 54.4812 125.142 54.1257C125.813 53.748 126.339 53.237 126.719 52.5927H131.887C131.216 54.5478 130.075 56.103 128.464 57.2584C126.853 58.4137 124.996 58.9913 122.893 58.9913C120.208 58.9913 117.971 58.0804 116.181 56.2586C114.391 54.4367 113.496 52.1816 113.496 49.4933C113.496 48.4269 113.642 47.4049 113.933 46.4273C114.246 45.4497 114.682 44.5721 115.241 43.7945C115.823 43.0169 116.494 42.3504 117.255 41.7949C118.016 41.2173 118.877 40.7729 119.839 40.4619C120.801 40.1508 121.819 39.9953 122.893 39.9953C124.705 39.9953 126.327 40.4175 127.759 41.2617C129.214 42.106 130.321 43.2502 131.082 44.6943C131.865 46.1385 132.256 47.7159 132.256 49.4267ZM122.893 44.1278C121.797 44.1278 120.868 44.4277 120.108 45.0276C119.369 45.6275 118.866 46.4606 118.597 47.5271H127.357C127.133 46.7939 126.809 46.1829 126.383 45.6941C125.958 45.1831 125.444 44.7943 124.84 44.5277C124.258 44.2611 123.609 44.1278 122.893 44.1278Z" fill="#1E1A2E"/>
<path d="M146.081 40.062C148.139 40.062 149.761 40.7507 150.947 42.1282C152.155 43.4835 152.759 45.3053 152.759 47.5937V58.4914H147.86V48.3602C147.86 45.6719 146.808 44.3277 144.705 44.3277C143.877 44.3277 143.15 44.5166 142.524 44.8943C141.919 45.272 141.45 45.8163 141.114 46.5273C140.801 47.2382 140.644 48.0714 140.644 49.0268V58.4914H135.744V40.4952H139.1L140.074 42.7281C140.409 42.3059 140.79 41.9394 141.215 41.6283C141.662 41.295 142.143 41.0173 142.658 40.7952C143.172 40.5508 143.709 40.373 144.269 40.2619C144.85 40.1286 145.455 40.062 146.081 40.062Z" fill="#1E1A2E"/>
<path d="M171.413 46.194C172.443 46.7272 173.237 47.4826 173.796 48.4602C174.378 49.4156 174.669 50.5153 174.669 51.7595C174.669 53.6258 173.942 55.2143 172.487 56.5252C171.056 57.836 169.322 58.4914 167.286 58.4914H157.285V35.163H167.017C169.031 35.163 170.709 35.7407 172.051 36.896C173.394 38.0291 174.065 39.451 174.065 41.1617C174.065 42.1615 173.83 43.1058 173.36 43.9945C172.89 44.8832 172.241 45.6164 171.413 46.194ZM169.131 41.9616C169.131 41.5839 169.064 41.2506 168.93 40.9618C168.818 40.6507 168.65 40.3841 168.427 40.162C168.203 39.9398 167.923 39.7731 167.588 39.6621C167.274 39.5288 166.916 39.4621 166.514 39.4621H162.285V44.4277H166.514C167.319 44.4277 167.957 44.2055 168.427 43.7612C168.896 43.2946 169.131 42.6948 169.131 41.9616ZM166.782 53.8591C167.61 53.8591 168.281 53.6147 168.796 53.1259C169.31 52.6371 169.568 52.0039 169.568 51.2263C169.568 50.4709 169.31 49.8488 168.796 49.36C168.281 48.8712 167.61 48.6268 166.782 48.6268H162.285V53.8591H166.782Z" fill="#1E1A2E"/>
<path d="M187.711 40.3952H189.322V44.9943H187.208C185.821 44.9943 184.825 45.3164 184.221 45.9607C183.639 46.605 183.348 47.6604 183.348 49.1267V58.4914H178.449V40.4952H181.603L182.476 42.6948C183.706 41.1617 185.452 40.3952 187.711 40.3952Z" fill="#1E1A2E"/>
<path d="M206.546 56.7918C205.002 58.2581 202.944 58.9913 200.371 58.9913C197.82 58.9913 195.762 58.247 194.196 56.7585C192.652 55.2699 191.88 53.3147 191.88 50.893V40.4952H196.78V50.3265C196.78 51.6151 197.093 52.626 197.72 53.3592C198.369 54.0701 199.252 54.4256 200.371 54.4256C201.512 54.4256 202.396 54.0701 203.022 53.3592C203.671 52.626 203.996 51.6151 203.996 50.3265V40.4952H208.895V50.893C208.895 53.337 208.112 55.3032 206.546 56.7918Z" fill="#1E1A2E"/>
<path d="M219.796 58.9913C218.297 58.9913 216.966 58.7247 215.803 58.1915C214.661 57.6583 213.767 56.9029 213.118 55.9253C212.491 54.9477 212.178 53.8257 212.178 52.5593H216.944C216.966 53.0926 217.1 53.548 217.346 53.9257C217.615 54.2812 217.973 54.5478 218.42 54.7256C218.868 54.8811 219.382 54.9588 219.964 54.9588C220.434 54.9588 220.859 54.8922 221.239 54.7589C221.62 54.6256 221.933 54.4256 222.179 54.159C222.425 53.8702 222.548 53.5369 222.548 53.1592C222.548 52.6038 222.257 52.1928 221.676 51.9261C221.094 51.6595 220.221 51.4262 219.058 51.2263C218.32 51.1152 217.704 51.0041 217.212 50.893C216.742 50.7819 216.172 50.5931 215.5 50.3265C214.852 50.0377 214.326 49.7155 213.923 49.36C213.543 49.0045 213.207 48.5158 212.916 47.8937C212.625 47.2716 212.48 46.5495 212.48 45.7274C212.48 44.0389 213.151 42.6614 214.494 41.595C215.836 40.5285 217.592 39.9953 219.763 39.9953C221.955 39.9953 223.712 40.5508 225.032 41.6616C226.374 42.7503 227.045 44.1944 227.045 45.9941H222.38C222.38 44.5721 221.474 43.8612 219.662 43.8612C218.901 43.8612 218.308 44.0167 217.883 44.3277C217.458 44.6388 217.246 45.0609 217.246 45.5941C217.246 45.8163 217.302 46.0274 217.413 46.2273C217.548 46.4051 217.693 46.5495 217.85 46.6606C218.029 46.7717 218.297 46.8828 218.655 46.9938C219.013 47.0827 219.315 47.1494 219.561 47.1938C219.807 47.2382 220.177 47.3049 220.669 47.3938C221.094 47.4826 221.396 47.5493 221.575 47.5937C221.754 47.6159 222.056 47.6715 222.481 47.7604C222.906 47.8492 223.219 47.9381 223.421 48.027C223.644 48.0936 223.935 48.1936 224.293 48.3269C224.674 48.4602 224.953 48.6046 225.132 48.7601C225.334 48.8934 225.569 49.0601 225.837 49.26C226.128 49.46 226.352 49.6822 226.508 49.9266C226.665 50.171 226.821 50.4376 226.978 50.7264C227.135 51.0152 227.235 51.3485 227.28 51.7262C227.347 52.1039 227.381 52.5038 227.381 52.9259C227.381 54.77 226.687 56.2475 225.3 57.3583C223.913 58.447 222.078 58.9913 219.796 58.9913Z" fill="#1E1A2E"/>
<path d="M241.355 40.062C243.413 40.062 245.035 40.7396 246.221 42.0949C247.407 43.4501 248 45.272 248 47.5604V58.4914H243.1V48.3602C243.1 47.005 242.843 45.9941 242.328 45.3275C241.836 44.661 241.042 44.3277 239.945 44.3277C238.715 44.3277 237.731 44.7499 236.992 45.5941C236.254 46.4384 235.885 47.5826 235.885 49.0268V58.4914H230.985V33.9966H235.885V42.1615C237.361 40.7618 239.185 40.062 241.355 40.062Z" fill="#1E1A2E"/>
</svg>
